<?xml version="1.0" encoding="UTF-8" standalone="no"?>
<!-- Created with Inkscape (http://www.inkscape.org/) -->

<svg
   xmlns:dc="http://purl.org/dc/elements/1.1/"
   xmlns:cc="http://creativecommons.org/ns#"
   xmlns:rdf="http://www.w3.org/1999/02/22-rdf-syntax-ns#"
   xmlns:svg="http://www.w3.org/2000/svg"
   xmlns="http://www.w3.org/2000/svg"
   xmlns:sodipodi="http://sodipodi.sourceforge.net/DTD/sodipodi-0.dtd"
   xmlns:inkscape="http://www.inkscape.org/namespaces/inkscape"
   width="86.698669mm"
   height="65.024254mm"
   viewBox="0 0 86.698669 65.024254"
   version="1.1"
   id="svg8"
   sodipodi:docname="opensuse-title.svg"
   inkscape:version="0.92.1 r">
  <defs
     id="defs2" />
  <sodipodi:namedview
     id="base"
     pagecolor="#ffffff"
     bordercolor="#666666"
     borderopacity="1.0"
     inkscape:pageopacity="0.0"
     inkscape:pageshadow="2"
     inkscape:zoom="0.35"
     inkscape:cx="-144.73141"
     inkscape:cy="111.45147"
     inkscape:document-units="mm"
     inkscape:current-layer="layer1"
     showgrid="false"
     inkscape:window-width="1920"
     inkscape:window-height="1015"
     inkscape:window-x="0"
     inkscape:window-y="0"
     inkscape:window-maximized="1"
     units="mm"
     fit-margin-top="0"
     fit-margin-left="0"
     fit-margin-right="0"
     fit-margin-bottom="0" />
  <metadata
     id="metadata5">
    <rdf:RDF>
      <cc:Work
         rdf:about="">
        <dc:format>image/svg+xml</dc:format>
        <dc:type
           rdf:resource="http://purl.org/dc/dcmitype/StillImage" />
        <dc:title></dc:title>
      </cc:Work>
    </rdf:RDF>
  </metadata>
  <g
     inkscape:label="Layer 1"
     inkscape:groupmode="layer"
     id="layer1"
     transform="translate(-44.341137,-113.29728)">
    <g
       id="g3876"
       transform="translate(13.607143,100.54167)">
      <path
         style="fill:#fefefe;stroke-width:0.08466667"
         d="M 30.733999,45.267859 V 12.755858 H 74.08333 117.43266 V 45.267859 77.77986 H 74.08333 30.733999 Z"
         id="path3886"
         inkscape:connector-curvature="0" />
      <path
         style="fill:#a1d3e9;stroke-width:0.08466667"
         d="m 31.666713,77.504693 c 10e-4,-0.205439 0.664907,-1.422988 2.619862,-4.804833 l 2.618482,-4.529667 20.099581,-0.02134 20.099581,-0.02134 2.744055,4.751987 c 1.50923,2.613592 2.756756,4.785371 2.772277,4.826175 0.01612,0.04237 -10.904319,0.07419 -25.463498,0.07419 H 31.665332 Z M 85.707675,72.016868 82.388354,66.257894 92.430687,48.862543 102.47302,31.467192 h 7.47982 7.47982 V 54.623526 77.77986 l -14.20283,-0.002 -14.202834,-0.002 -3.319321,-5.758975 z M 30.733999,66.246354 c 0,-1.389025 0.01667,-1.603034 0.113779,-1.4605 0.255477,0.374991 0.817554,1.388114 0.817554,1.473611 0,0.09842 -0.843762,1.614395 -0.898538,1.614395 -0.01804,0 -0.0328,-0.732378 -0.0328,-1.627506 z m 3.106334,-7.817911 -3.106334,-5.381416 V 32.901318 12.75561 l 28.586483,0.02129 28.586484,0.02129 4.684267,8.110587 L 97.2755,29.019366 87.232322,46.414612 77.189144,63.80986 H 57.067905 36.946666 Z M 98.910331,19.656192 94.927217,12.755858 h 11.252723 11.25272 v 6.900334 6.900333 h -7.26961 -7.26961 z"
         id="path3884"
         inkscape:connector-curvature="0" />
      <path
         style="fill:#33a0de;stroke-width:0.08466667"
         d="m 31.665659,77.547027 c 2.12e-4,-0.150834 0.921525,-1.828108 2.616001,-4.7625 l 2.615673,-4.529667 20.105748,-0.02134 20.105747,-0.02134 2.649719,4.593341 c 1.457346,2.526338 2.70504,4.679067 2.772655,4.783842 l 0.122936,0.1905 H 57.159735 31.665332 l 3.3e-4,-0.232833 z M 88.744307,77.20836 c -3.241868,-5.572244 -6.280952,-10.908549 -6.26151,-10.99454 0.01368,-0.06049 4.520666,-7.901917 10.015532,-17.425385 l 9.990671,-17.315398 7.47183,-0.0029 7.47183,-0.0029 V 54.623526 77.77986 H 103.25473 89.076798 Z M 30.733999,66.265193 c 0,-0.8382 0.01476,-1.524 0.0328,-1.524 0.01804,0 0.2291,0.34526 0.469028,0.767245 l 0.436233,0.767245 -0.433058,0.756755 c -0.238181,0.416216 -0.449244,0.756755 -0.469028,0.756755 -0.01978,0 -0.03597,-0.6858 -0.03597,-1.524 z m 6.148172,-2.645658 c -0.06671,-0.104872 -1.477342,-2.541238 -3.134733,-5.414148 L 30.733999,52.981914 V 32.868886 12.755858 h 28.555013 28.555013 l 4.655485,8.060236 c 2.560517,4.433129 4.662825,8.119305 4.671796,8.191501 0.009,0.0722 -4.486862,7.922714 -9.990739,17.445597 l -10.007049,17.314334 -20.085027,0.02134 -20.085025,0.02134 z M 98.975329,19.725672 c -2.16535,-3.754561 -3.9497,-6.858726 -3.965222,-6.898144 -0.01552,-0.03942 5.023203,-0.07167 11.197163,-0.07167 h 11.22539 v 6.900334 6.900333 l -7.26017,-0.0022 -7.26016,-0.0022 z"
         id="path3882"
         inkscape:connector-curvature="0" />
      <path
         style="fill:#319f7a;stroke-width:0.08466667"
         d="m 88.744307,77.20836 c -3.241868,-5.572244 -6.280952,-10.908549 -6.26151,-10.99454 0.01368,-0.06049 4.520666,-7.901917 10.015532,-17.425385 l 9.990671,-17.315398 7.47183,-0.0029 7.47183,-0.0029 V 54.623526 77.77986 H 103.25473 89.076798 Z M 36.882171,63.619535 c -0.06671,-0.104872 -1.477342,-2.541238 -3.134733,-5.414148 L 30.733999,52.981914 V 32.868886 12.755858 h 28.555013 28.555013 l 4.655485,8.060236 c 2.560517,4.433129 4.662825,8.119305 4.671796,8.191501 0.009,0.0722 -4.486862,7.922714 -9.990739,17.445597 l -10.007049,17.314334 -20.085027,0.02134 -20.085025,0.02134 z M 98.975329,19.725672 c -2.16535,-3.754561 -3.9497,-6.858726 -3.965222,-6.898144 -0.01552,-0.03942 5.023203,-0.07167 11.197163,-0.07167 h 11.22539 v 6.900334 6.900333 l -7.26017,-0.0022 -7.26016,-0.0022 z"
         id="path3880"
         inkscape:connector-curvature="0" />
      <path
         style="fill:#4fa037;stroke-width:0.08466667"
         d="M 88.867471,77.420027 C 85.452064,71.539651 82.464324,66.29559 82.483204,66.214406 c 0.01345,-0.05784 4.520259,-7.898073 10.015125,-17.422738 l 9.990671,-17.317572 7.47183,-0.0035 7.47183,-0.0035 V 54.623526 77.77986 H 103.25456 89.076467 Z M 98.975329,19.722705 c -2.16535,-3.755514 -3.9497,-6.859402 -3.965222,-6.897528 -0.01552,-0.03813 5.023203,-0.06932 11.197163,-0.06932 h 11.22539 v 6.900334 6.900333 l -7.26017,-0.0028 -7.26016,-0.0028 z"
         id="path3878"
         inkscape:connector-curvature="0" />
    </g>
  </g>
</svg>
